<svg xmlns="http://www.w3.org/2000/svg" width="106" height="40" fill="none"><g fill="#1F2041"><path d="M62.335 13.368q.332 0 .542.228.228.21.228.542a.74.74 0 0 1-.227.543.7.7 0 0 1-.543.227h-3.763v10.5a.76.76 0 0 1-.227.56q-.21.21-.542.21-.315 0-.543-.21a.76.76 0 0 1-.227-.56v-10.5H53.27a.74.74 0 0 1-.543-.227.74.74 0 0 1-.227-.543q0-.332.227-.542a.74.74 0 0 1 .543-.228zM68.908 13.368q1.329 0 2.502.508 1.19.507 2.065 1.382a6.3 6.3 0 0 1 1.4 2.065q.507 1.173.508 2.503a6.26 6.26 0 0 1-.665 2.87 6.5 6.5 0 0 1-1.803 2.205l-.035.035q-.84.63-1.837.997a6.4 6.4 0 0 1-2.135.35 6.2 6.2 0 0 1-2.503-.507 6.8 6.8 0 0 1-2.065-1.383 6.5 6.5 0 0 1-1.382-2.047 6.3 6.3 0 0 1-.508-2.52q0-1.47.595-2.713.596-1.26 1.628-2.152l.07-.07q.017 0 .052-.035a6.3 6.3 0 0 1 1.89-1.085q1.05-.403 2.223-.403m0 11.375q.665 0 1.26-.157a5.6 5.6 0 0 0 1.155-.473l-6.143-7.472a4.9 4.9 0 0 0-.875 1.47 4.7 4.7 0 0 0-.315 1.715q0 1.015.385 1.907.386.892 1.05 1.575.682.666 1.575 1.05.892.385 1.908.385m3.622-1.592q.613-.665.945-1.505.35-.858.35-1.82 0-1.015-.385-1.908a4.8 4.8 0 0 0-1.067-1.557 4.81 4.81 0 0 0-3.465-1.453q-.7 0-1.348.193a4.5 4.5 0 0 0-1.207.525zM82.351 20.63a.76.76 0 0 1-.595-.28l-4.498-5.774a.71.71 0 0 1-.157-.543.72.72 0 0 1 .28-.507.66.66 0 0 1 .543-.14q.315.035.507.28l3.92 5.005 3.832-4.918a.7.7 0 0 1 .49-.28q.315-.034.56.158a.72.72 0 0 1 .28.507.71.71 0 0 1-.157.543l-4.41 5.67a.73.73 0 0 1-.595.28m4.918 5.636q-.07 0-.228-.018a1.6 1.6 0 0 1-.332-.087 4 4 0 0 1-.42-.228 2.4 2.4 0 0 1-.42-.42l-3.518-4.532-3.832 4.935a.72.72 0 0 1-.508.28.71.71 0 0 1-.542-.158.7.7 0 0 1-.28-.49.74.74 0 0 1 .157-.56l4.41-5.67a.68.68 0 0 1 .578-.28q.384 0 .612.28l4.095 5.25q.087.122.157.158l.106.052q.297 0 .49.21.21.193.227.49a.66.66 0 0 1-.175.543.74.74 0 0 1-.525.245zM91.734 26.266a.76.76 0 0 1-.56-.228.76.76 0 0 1-.227-.56V14.103q0-.315.227-.542a.76.76 0 0 1 .56-.228q.315 0 .543.228a.74.74 0 0 1 .227.542v11.375a.76.76 0 0 1-.227.56.74.74 0 0 1-.543.228M104.938 26.23a.69.69 0 0 1-.595-.297l-7.298-9.59v9.135a.74.74 0 0 1-.227.543.71.71 0 0 1-.525.21.75.75 0 0 1-.753-.753V14.121q0-.246.14-.438a.7.7 0 0 1 .385-.262.68.68 0 0 1 .455-.018.8.8 0 0 1 .385.263l7.28 9.607v-9.152q0-.298.21-.525a.74.74 0 0 1 .543-.228q.315 0 .525.228a.72.72 0 0 1 .227.525v11.357q0 .246-.14.438a.8.8 0 0 1-.367.28 1.5 1.5 0 0 1-.245.035"/></g><path fill="url(#a)" d="M20 27.059a1.18 1.18 0 0 1-1.177-1.177c0-4.529-3.706-8.235-8.235-8.235a1.18 1.18 0 0 1-1.176-1.176c0-.647.529-1.177 1.176-1.177a10.58 10.58 0 0 1 10.588 10.588A1.18 1.18 0 0 1 20 27.06"/><path fill="url(#b)" d="M30.588 16.47a1.18 1.18 0 0 1-1.176 1.177 8.21 8.21 0 0 0-6.765 3.559 12 12 0 0 0-1.176-2.294 10.5 10.5 0 0 1 7.94-3.618c.648 0 1.177.53 1.177 1.177"/><path fill="url(#c)" d="M20 40C8.97 40 0 31.03 0 20S8.97 0 20 0s20 8.97 20 20-8.97 20-20 20m0-37.647C10.265 2.353 2.353 10.265 2.353 20S10.265 37.647 20 37.647 37.647 29.735 37.647 20 29.735 2.353 20 2.353"/><defs><linearGradient id="a" x1="15.294" x2="15.294" y1="15.294" y2="27.059" gradientUnits="userSpaceOnUse"><stop stop-color="#BC9CFF"/><stop offset="1" stop-color="#8BA4F9"/></linearGradient><linearGradient id="b" x1="26.029" x2="26.029" y1="15.294" y2="21.206" gradientUnits="userSpaceOnUse"><stop stop-color="#6FCF97"/><stop offset="1" stop-color="#66D2EA"/></linearGradient><linearGradient id="c" x1="20" x2="20" y1="0" y2="40" gradientUnits="userSpaceOnUse"><stop stop-color="#BC9CFF"/><stop offset="1" stop-color="#8BA4F9"/></linearGradient></defs></svg>