<svg xmlns="http://www.w3.org/2000/svg" width="22" height="22" fill="none"><path fill="url(#a)" d="M11 5.61q-1.453 0-2.719.75a5.4 5.4 0 0 0-1.969 1.968A5.25 5.25 0 0 0 5.61 11q0 1.453.704 2.719a5.9 5.9 0 0 0 1.968 1.969A5.5 5.5 0 0 0 11 16.39q1.454 0 2.672-.703 1.266-.75 1.969-1.97.75-1.265.75-2.718a5 5 0 0 0-.75-2.672 4.97 4.97 0 0 0-1.97-1.969A5 5 0 0 0 11 5.61m0 8.906a3.39 3.39 0 0 1-2.484-1.032A3.39 3.39 0 0 1 7.484 11q0-1.453 1.032-2.484A3.39 3.39 0 0 1 11 7.484q1.454 0 2.484 1.032A3.39 3.39 0 0 1 14.516 11q0 1.454-1.032 2.484A3.39 3.39 0 0 1 11 14.516m6.89-9.141q-.046.515-.421.89-.328.376-.844.376t-.89-.375a1.22 1.22 0 0 1-.376-.891q0-.515.375-.89.375-.376.891-.376t.89.375q.376.375.376.891m3.563 1.266q-.093-1.36-.422-2.344A5.1 5.1 0 0 0 19.72 2.28 5.1 5.1 0 0 0 17.703.97Q16.72.64 15.36.594 14.047.5 11 .5T6.594.594Q5.282.64 4.297.969A5.5 5.5 0 0 0 2.234 2.28 5.4 5.4 0 0 0 .97 4.297Q.64 5.28.547 6.64.5 7.954.5 11t.047 4.406q.093 1.312.422 2.297a5.8 5.8 0 0 0 1.265 2.063 5.3 5.3 0 0 0 2.063 1.218q.984.375 2.297.422 1.36.094 4.406.094t4.36-.094q1.359-.047 2.343-.375a5.4 5.4 0 0 0 2.016-1.265 5.5 5.5 0 0 0 1.312-2.063q.328-.984.375-2.297.094-1.36.094-4.406t-.047-4.36m-2.25 10.547q-.563 1.406-2.015 2.015-.75.282-2.532.375-.984.047-2.906.047h-1.5q-1.875 0-2.906-.047-1.735-.093-2.532-.375-1.406-.563-2.015-2.015-.282-.797-.375-2.532a68 68 0 0 1-.047-2.906v-1.5q0-1.875.047-2.906.093-1.782.375-2.532.563-1.452 2.015-2.015.797-.282 2.532-.375a68 68 0 0 1 2.906-.047h1.5q1.875 0 2.906.047 1.781.093 2.531.375 1.454.563 2.016 2.015.282.75.375 2.532.047.984.047 2.906v1.5q0 1.875-.047 2.906-.093 1.734-.375 2.531"/><defs><linearGradient id="a" x1="11" x2="11" y1="-1" y2="23" gradientUnits="userSpaceOnUse"><stop stop-color="#BC9CFF"/><stop offset="1" stop-color="#8BA4F9"/></linearGradient></defs></svg>