<svg xmlns="http://www.w3.org/2000/svg" width="10" height="8" fill="none"><path fill="url(#a)" d="m4.93 7.887-.605-.547A81 81 0 0 1 2.82 5.953q-.469-.45-1.055-1.113Q1.2 4.176.985 3.648A3 3 0 0 1 .77 2.535q0-.957.645-1.62Q2.079.25 3.055.25q1.132 0 1.875.879Q5.672.25 6.805.25q.977 0 1.621.664.664.664.664 1.621 0 .762-.507 1.582a7.8 7.8 0 0 1-1.114 1.426q-.585.606-1.933 1.816z"/><defs><linearGradient id="a" x1="4.93" x2="4.93" y1="-6" y2="14" gradientUnits="userSpaceOnUse"><stop stop-color="#BC9CFF"/><stop offset="1" stop-color="#8BA4F9"/></linearGradient></defs></svg>