<svg xmlns="http://www.w3.org/2000/svg" width="22" height="22" fill="none"><path fill="url(#a)" d="M21.5 2.75v16.5a2.17 2.17 0 0 1-.656 1.594 2.17 2.17 0 0 1-1.594.656h-3.984v-8.297h2.812l.422-3.187h-3.234V8q0-.75.28-1.125.376-.422 1.267-.422H18.5V3.641q-.984-.141-2.437-.141-1.875 0-3 1.125-1.08 1.078-1.079 3.047v2.344H9.125v3.187h2.86V21.5H2.75a2.17 2.17 0 0 1-1.594-.656A2.17 2.17 0 0 1 .5 19.25V2.75q0-.937.656-1.594A2.17 2.17 0 0 1 2.75.5h16.5a2.17 2.17 0 0 1 1.594.656q.656.657.656 1.594"/><defs><linearGradient id="a" x1="11" x2="11" y1="-1" y2="23" gradientUnits="userSpaceOnUse"><stop stop-color="#BC9CFF"/><stop offset="1" stop-color="#8BA4F9"/></linearGradient></defs></svg>