<svg xmlns="http://www.w3.org/2000/svg" width="24" height="20" fill="none"><path fill="url(#a)" d="M21.516 5.125q.046.187.047.61 0 3.374-1.641 6.515-1.687 3.328-4.735 5.297-3.327 2.203-7.64 2.203-4.125 0-7.547-2.203.516.047 1.172.047 3.422 0 6.14-2.11-1.64 0-2.906-.937a5.1 5.1 0 0 1-1.687-2.438q.469.047.89.047.656 0 1.313-.14-1.688-.375-2.813-1.735Q.984 8.922.984 7.187v-.093a4.63 4.63 0 0 0 2.204.656 5.5 5.5 0 0 1-1.594-1.781 4.7 4.7 0 0 1-.61-2.344q0-1.312.704-2.484A13.65 13.65 0 0 0 6.14 4.797a13.8 13.8 0 0 0 5.672 1.5 7 7 0 0 1-.094-1.125q0-1.313.656-2.438A4.77 4.77 0 0 1 14.156.906 4.75 4.75 0 0 1 16.594.25q1.078 0 1.968.422a5.5 5.5 0 0 1 1.641 1.125 10 10 0 0 0 3.14-1.172q-.561 1.735-2.155 2.719 1.406-.187 2.812-.797-1.031 1.5-2.484 2.578"/><defs><linearGradient id="a" x1="12" x2="12" y1="-2" y2="22" gradientUnits="userSpaceOnUse"><stop stop-color="#BC9CFF"/><stop offset="1" stop-color="#8BA4F9"/></linearGradient></defs></svg>