<svg xmlns="http://www.w3.org/2000/svg" width="36" height="38" fill="none"><path fill="url(#a)" d="M31.969 26v-4.031H28.03V26zm0 7.969V30.03H28.03v3.938zm-12-24V6.03H16.03V9.97zm0 8.062V14H16.03v4.031zm0 7.969v-4.031H16.03V26zm0 7.969V30.03H16.03v3.938zm-12-15.938V14H4.03v4.031zm0 7.969v-4.031H4.03V26zm0 7.969V30.03H4.03v3.938zM24 18.03h12V38H0V9.969h12V6.03l6-6 6 6z"/><defs><linearGradient id="a" x1="18" x2="18" y1="-4" y2="44" gradientUnits="userSpaceOnUse"><stop stop-color="#BC9CFF"/><stop offset="1" stop-color="#8BA4F9"/></linearGradient></defs></svg>