<svg xmlns="http://www.w3.org/2000/svg" width="10" height="8" fill="none"><path fill="#1F2041" fill-opacity=".25" d="M5.04 6.734q.936-.84 1.386-1.27.45-.429.976-1.015.528-.585.723-1.035.215-.45.215-.879A1.37 1.37 0 0 0 7.91 1.5q-.41-.41-1.035-.41a1.7 1.7 0 0 0-.918.273 1.4 1.4 0 0 0-.566.703h-.782q-.156-.429-.586-.703a1.6 1.6 0 0 0-.898-.273 1.47 1.47 0 0 0-1.055.41q-.41.41-.41 1.035 0 .43.195.88.216.449.743 1.034.527.586.976 1.016.45.43 1.387 1.27L5 6.772zM6.874.25q.976 0 1.621.664.664.664.664 1.621 0 .567-.215 1.113-.215.528-.8 1.192-.567.664-1.036 1.113-.468.45-1.504 1.387L5 7.887l-.605-.528A56 56 0 0 1 2.44 5.543a8.4 8.4 0 0 1-1.093-1.426Q.84 3.297.84 2.535q0-.957.644-1.62Q2.15.25 3.125.25 4.258.25 5 1.129 5.742.25 6.875.25"/></svg>