<svg xmlns="http://www.w3.org/2000/svg" width="40" height="40" fill="none"><path fill="url(#a)" d="M26.188 29.094Q23.469 30.969 20 30.969t-6.281-1.875Q11 27.125 9.78 24.03H30.22q-1.22 3.094-4.032 5.063M15.03 17.187q-.843.844-2.062.844t-2.156-.843q-.844-.937-.844-2.157 0-1.218.844-2.062.936-.938 2.156-.938 1.218 0 2.062.938.938.843.938 2.062t-.938 2.156m14.063 0q-.844.844-2.063.844-1.218 0-2.156-.843-.844-.937-.844-2.157 0-1.218.844-2.062.938-.938 2.156-.938t2.063.938q.937.843.937 2.062t-.937 2.156M8.656 31.345Q13.438 36.03 20 36.03q6.563 0 11.25-4.687Q36.031 26.562 36.031 20T31.25 8.75Q26.563 3.97 20 3.969T8.656 8.75Q3.97 13.438 3.97 20t4.687 11.344M5.844 5.938Q11.75.03 20 .03t14.063 5.907Q39.969 11.75 39.969 20t-5.907 14.156Q28.252 39.97 20 39.97T5.844 34.156Q.03 28.25.03 20T5.844 5.938"/><defs><linearGradient id="a" x1="20" x2="20" y1="-4" y2="44" gradientUnits="userSpaceOnUse"><stop stop-color="#BC9CFF"/><stop offset="1" stop-color="#8BA4F9"/></linearGradient></defs></svg>